<svg width="393" height="393" viewBox="0 0 393 393" fill="none" xmlns="http://www.w3.org/2000/svg">
<path fill-rule="evenodd" clip-rule="evenodd" d="M92.1028 392.245L229.834 305.982L392.245 300.142L305.982 162.41L300.142 0L162.41 86.2627L0 92.1027L86.2629 229.834L92.1028 392.245ZM195.191 264.707C193.83 264.707 192.716 263.594 192.716 262.233V260.624L193.458 259.882C194.448 258.892 195.933 258.892 196.923 259.882L197.665 260.624V262.233C197.665 263.594 196.552 264.707 195.191 264.707ZM197.665 244.786H268.442C271.783 244.786 274.505 242.064 274.381 238.723V131.939C274.381 128.722 271.783 126 268.442 126H122.434C119.217 126 116.495 128.722 116.495 131.939V238.847C116.495 242.064 119.217 244.786 122.434 244.786H192.716V260.624L173.289 280.051H168.34C166.979 280.051 165.865 281.164 165.865 282.525C165.865 283.886 166.979 285 168.34 285H186.282C187.643 285 188.756 283.886 188.756 282.525C188.756 281.164 187.643 280.051 186.282 280.051H180.219L195.191 265.079L210.163 280.051H203.728C202.367 280.051 201.254 281.164 201.254 282.525C201.254 283.886 202.367 285 203.728 285H221.67C223.031 285 224.145 283.886 224.145 282.525C224.145 281.164 223.031 280.051 221.67 280.051H217.092L197.665 260.624V244.786ZM197.662 242.188H268.442C270.298 242.188 271.907 240.703 271.907 238.723V131.939C271.907 130.083 270.422 128.475 268.442 128.475H122.434C120.578 128.475 118.97 130.083 118.97 131.939V238.847C118.97 240.703 120.578 242.311 122.434 242.188H192.719C192.717 242.229 192.716 242.27 192.716 242.311V244.786H197.665V242.311C197.665 242.27 197.664 242.229 197.662 242.188ZM195.191 239.837C193.871 239.837 192.784 240.883 192.719 242.188H197.662C197.597 240.883 196.51 239.837 195.191 239.837ZM195.191 239.837H268.442C269.061 239.837 269.432 239.342 269.432 238.847V131.939C269.432 131.321 268.937 130.949 268.442 130.949H122.434C121.939 130.949 121.444 131.444 121.444 131.939V238.723C121.444 239.342 121.939 239.837 122.434 239.837H195.191ZM217.092 280.051L217.339 280.298C218.329 281.288 218.329 282.773 217.339 283.763C216.349 284.753 214.865 284.753 213.875 283.763L210.163 280.051H217.092ZM180.219 280.051H173.289L173.042 280.298C172.052 281.288 172.052 282.773 173.042 283.763C173.537 284.258 174.156 284.505 174.774 284.505C175.393 284.505 176.012 284.258 176.507 283.763L180.219 280.051ZM128.002 138.002H262.503V232.907H128.002V138.002ZM128.002 235.258H262.503C263.864 235.258 264.977 234.145 264.977 232.907V138.002C264.977 136.641 263.864 135.528 262.503 135.528H128.002C126.641 135.528 125.528 136.641 125.528 138.002V232.784C125.528 234.145 126.641 235.258 128.002 235.258ZM260.028 230.309H130.477V140.477H260.028V230.309ZM252.604 215.337H227.609C226.248 215.337 225.135 214.223 225.135 212.862C225.135 211.501 226.248 210.388 227.609 210.388H252.604C253.965 210.388 255.079 211.501 255.079 212.862C255.079 214.223 253.965 215.337 252.604 215.337ZM236.889 225.978H227.609C226.248 225.978 225.135 224.865 225.135 223.504C225.135 222.142 226.248 221.029 227.609 221.029H236.889C238.251 221.029 239.364 222.142 239.364 223.504C239.364 224.865 238.251 225.978 236.889 225.978ZM189.746 209.893C189.256 209.893 188.765 209.737 188.336 209.426C188.379 209.284 188.429 209.144 188.486 209.007C188.716 208.451 189.054 207.947 189.479 207.521C189.904 207.096 190.408 206.759 190.964 206.529C191.234 206.417 191.514 206.332 191.799 206.273C192.312 207.203 192.163 208.342 191.355 209.15C190.984 209.769 190.365 209.893 189.746 209.893ZM189.927 204.258L180.997 195.327L192.262 184.328C193.191 184.774 194.228 185.022 195.314 185.022C198.256 185.022 200.762 183.202 201.825 180.567H207.206L194.076 203.838C193.635 203.751 193.18 203.706 192.716 203.706C191.72 203.706 190.778 203.902 189.927 204.258ZM198.385 206.557C197.351 205.167 195.82 204.18 194.076 203.838L192.963 205.809C192.897 205.928 192.843 206.053 192.799 206.181C192.78 206.181 192.762 206.181 192.743 206.181L192.716 206.181C192.407 206.181 192.1 206.212 191.799 206.273C191.684 206.065 191.536 205.867 191.355 205.686L189.927 204.258C188.389 204.901 187.146 206.068 186.408 207.55L177.533 198.709L180.997 195.327L177.532 191.863L188.853 180.809C189.534 182.358 190.755 183.604 192.262 184.328L193.706 182.918C193.882 182.764 194.026 182.587 194.14 182.394C194.52 182.495 194.914 182.547 195.314 182.547C196.529 182.547 197.693 182.065 198.552 181.206C198.773 180.985 198.969 180.743 199.139 180.486C199.34 180.539 199.551 180.567 199.769 180.567H201.825C202.148 179.767 202.338 178.891 202.367 177.969C202.367 177.141 202.232 176.35 201.982 175.618H209.999L207.206 180.567H212.936L198.385 206.557ZM196.888 208.874C197.091 208.703 197.271 208.505 197.418 208.284L198.385 206.557C199.252 207.723 199.769 209.171 199.769 210.759C199.769 214.718 196.675 217.812 192.716 217.812C188.88 217.812 185.663 214.718 185.663 210.759C185.663 209.595 185.93 208.507 186.408 207.55L188.014 209.15C188.116 209.253 188.224 209.344 188.336 209.426C188.205 209.857 188.138 210.306 188.138 210.759C188.138 211.36 188.256 211.955 188.486 212.511C188.716 213.066 189.054 213.571 189.479 213.996C189.904 214.421 190.408 214.758 190.964 214.988C191.519 215.219 192.115 215.337 192.716 215.337C193.317 215.337 193.913 215.219 194.468 214.988C195.023 214.758 195.528 214.421 195.953 213.996C196.378 213.571 196.716 213.066 196.946 212.511C197.176 211.955 197.294 211.36 197.294 210.759C197.294 210.158 197.176 209.562 196.946 209.007C196.927 208.962 196.908 208.918 196.888 208.874ZM194.067 209.22C194.421 209.421 194.856 209.521 195.191 209.521C195.799 209.521 196.408 209.277 196.888 208.874C196.661 208.371 196.344 207.912 195.953 207.521C195.528 207.096 195.023 206.759 194.468 206.529C193.938 206.31 193.372 206.192 192.799 206.181C192.469 207.153 192.776 208.344 193.655 208.971C193.378 208.847 193.062 208.779 192.716 208.779C191.602 208.779 190.612 209.645 190.612 210.882C190.612 212.12 191.479 212.986 192.716 212.986C193.83 212.986 194.819 212.12 194.819 210.882C194.819 210.177 194.538 209.592 194.067 209.22ZM194.067 209.22C193.942 209.122 193.805 209.038 193.655 208.971C193.748 209.037 193.848 209.097 193.953 209.15C193.99 209.175 194.028 209.198 194.067 209.22ZM215.707 175.618L212.936 180.567H230.328C231.369 183.202 233.947 185.022 236.889 185.022C240.849 185.022 243.942 181.928 243.942 177.969C243.942 174.009 240.849 170.916 236.889 170.916C233.777 170.916 231.199 172.904 230.239 175.618H215.707ZM221.537 165.206L215.707 175.618H209.999L217.037 163.144C218.212 164.322 219.796 165.082 221.537 165.206ZM222.583 162.717C222.579 163.117 222.482 163.514 222.289 163.863L221.537 165.206C221.704 165.218 221.872 165.224 222.041 165.224C226.001 165.224 229.094 162.007 229.094 158.171C229.094 154.335 226.001 151.118 222.041 151.118C218.082 151.118 214.988 154.212 214.988 158.171C214.988 160.131 215.776 161.878 217.037 163.144L217.958 161.512C218.07 161.288 218.215 161.092 218.384 160.925C218.512 161.095 218.652 161.256 218.804 161.408C219.663 162.267 220.827 162.749 222.041 162.749C222.223 162.749 222.404 162.739 222.583 162.717ZM222.583 162.717C223.597 162.597 224.549 162.139 225.279 161.408C226.137 160.55 226.619 159.385 226.619 158.171C226.619 156.957 226.137 155.792 225.279 154.934C224.42 154.075 223.255 153.593 222.041 153.593C220.827 153.593 219.663 154.075 218.804 154.934C217.945 155.792 217.463 156.957 217.463 158.171C217.463 159.17 217.79 160.136 218.384 160.925C219.144 160.173 220.387 160.016 221.299 160.522C222.149 160.947 222.59 161.839 222.583 162.717ZM230.239 175.618H232.435C232.605 175.618 232.771 175.635 232.931 175.668C232.529 176.361 232.311 177.154 232.311 177.969C232.311 178.88 232.583 179.763 233.081 180.51C232.915 180.548 232.74 180.567 232.559 180.567H230.328C230.011 179.767 229.837 178.891 229.837 177.969C229.837 177.148 229.978 176.356 230.239 175.618ZM234.856 178.635C234.667 179.567 233.995 180.305 233.081 180.51C233.247 180.759 233.438 180.992 233.652 181.206C234.511 182.065 235.675 182.547 236.889 182.547C238.104 182.547 239.268 182.065 240.127 181.206C240.985 180.348 241.468 179.183 241.468 177.969C241.468 176.755 240.985 175.59 240.127 174.732C239.268 173.873 238.104 173.391 236.889 173.391C235.675 173.391 234.511 173.873 233.652 174.732C233.37 175.014 233.128 175.329 232.931 175.668C233.883 175.864 234.64 176.611 234.851 177.558C234.809 177.726 234.786 177.905 234.786 178.093C234.786 178.278 234.81 178.46 234.856 178.635ZM234.856 178.635C234.891 178.46 234.91 178.279 234.91 178.093C234.91 177.909 234.889 177.73 234.851 177.558C235.089 176.613 235.945 175.989 236.889 175.989C238.003 175.989 238.993 176.855 238.993 178.093C238.993 179.206 238.127 180.196 236.889 180.196C235.858 180.196 235.085 179.509 234.856 178.635ZM199.273 175.668C199.675 176.361 199.893 177.154 199.893 177.969C199.893 178.87 199.627 179.744 199.139 180.486C198.255 180.251 197.562 179.538 197.356 178.643C197.397 178.47 197.418 178.286 197.418 178.093C197.402 177.936 197.375 177.784 197.336 177.64C197.52 176.655 198.293 175.87 199.273 175.668ZM190.854 179.001C190.634 179.117 190.427 179.268 190.241 179.454L188.853 180.809C188.473 179.944 188.261 178.985 188.261 177.969C188.261 174.133 191.355 170.916 195.314 170.916C198.446 170.916 201.035 172.85 201.982 175.618H199.769C199.599 175.618 199.433 175.635 199.273 175.668C199.075 175.329 198.834 175.014 198.552 174.732C197.693 173.873 196.529 173.391 195.314 173.391C194.1 173.391 192.936 173.873 192.077 174.732C191.219 175.59 190.736 176.755 190.736 177.969C190.736 178.319 190.776 178.665 190.854 179.001ZM193.665 179.408C193.376 179.041 193.211 178.579 193.211 178.093C193.211 176.855 194.201 175.989 195.314 175.989C196.287 175.989 197.07 176.649 197.336 177.64C197.308 177.787 197.294 177.938 197.294 178.093C197.294 178.282 197.316 178.466 197.356 178.643C197.138 179.579 196.358 180.196 195.314 180.196C194.731 180.196 194.231 179.976 193.864 179.627C193.815 179.568 193.762 179.51 193.706 179.454C193.692 179.438 193.679 179.423 193.665 179.408ZM193.665 179.408C192.956 178.644 191.79 178.508 190.854 179.001C191.046 179.83 191.466 180.595 192.077 181.206C192.653 181.782 193.366 182.188 194.14 182.394C194.628 181.562 194.537 180.436 193.864 179.627C193.793 179.559 193.726 179.486 193.665 179.408ZM174.062 195.25L156.255 177.509C157.771 176.775 158.967 175.516 159.622 173.952L177.532 191.863L174.062 195.25ZM157.606 172.08C157.815 172.195 158.012 172.343 158.194 172.525L159.622 173.952C159.978 173.101 160.174 172.16 160.174 171.163C160.174 167.204 156.956 164.111 153.121 164.111C149.161 164.111 146.068 167.328 146.068 171.163C146.068 175.123 149.285 178.216 153.121 178.216C154.254 178.216 155.316 177.963 156.255 177.509L154.729 175.989C154.596 175.856 154.48 175.713 154.383 175.564C155.123 175.352 155.804 174.955 156.358 174.401C156.997 173.762 157.428 172.953 157.606 172.08ZM154.966 172.314C155.75 171.694 156.764 171.616 157.606 172.08C157.667 171.781 157.699 171.474 157.699 171.163C157.699 169.949 157.216 168.785 156.358 167.926C155.499 167.068 154.335 166.585 153.121 166.585C151.906 166.585 150.742 167.068 149.883 167.926C149.025 168.785 148.542 169.949 148.542 171.163C148.542 172.378 149.025 173.542 149.883 174.401C150.742 175.259 151.906 175.742 153.121 175.742C153.551 175.742 153.976 175.681 154.383 175.564C153.866 174.774 153.855 173.799 154.35 173.001C154.601 172.823 154.813 172.59 154.966 172.314ZM154.966 172.314C154.884 172.378 154.805 172.448 154.729 172.525C154.58 172.673 154.454 172.833 154.35 173.001C153.998 173.25 153.569 173.391 153.121 173.391C151.883 173.391 151.017 172.401 151.017 171.287C151.017 170.05 152.007 169.184 153.121 169.184C154.358 169.184 155.224 170.05 155.224 171.287C155.224 171.67 155.13 172.017 154.966 172.314ZM163.935 211.986C164.458 212.977 164.752 214.116 164.752 215.337C164.752 219.173 161.535 222.39 157.699 222.39C153.863 222.39 150.646 219.296 150.646 215.337C150.646 211.501 153.739 208.284 157.699 208.284C158.602 208.284 159.46 208.445 160.246 208.74L158.812 210.14C158.596 210.329 158.428 210.554 158.306 210.799C158.106 210.772 157.903 210.759 157.699 210.759C156.485 210.759 155.32 211.241 154.462 212.1C153.603 212.958 153.121 214.123 153.121 215.337C153.121 216.551 153.603 217.716 154.462 218.574C155.32 219.433 156.485 219.915 157.699 219.915C158.913 219.915 160.078 219.433 160.936 218.574C161.795 217.716 162.277 216.551 162.277 215.337C162.277 214.819 162.189 214.31 162.022 213.83C162.11 213.762 162.195 213.687 162.277 213.605L163.935 211.986ZM163.935 211.986C163.148 210.497 161.845 209.341 160.246 208.74L174.062 195.25L177.533 198.709L163.935 211.986ZM160.936 212.1C161.428 212.592 161.797 213.185 162.022 213.83C161.577 214.175 161.061 214.347 160.545 214.347C159.926 214.347 159.307 214.1 158.812 213.605C158.039 212.831 157.87 211.679 158.306 210.799C159.296 210.932 160.222 211.385 160.936 212.1ZM219.938 158.295C219.938 157.058 220.928 156.191 222.041 156.191C223.279 156.191 224.145 156.934 224.145 158.171C224.145 159.409 223.279 160.398 222.041 160.398C220.804 160.398 219.938 159.532 219.938 158.295ZM155.595 215.461C155.595 214.223 156.585 213.357 157.699 213.357C158.812 213.357 159.802 214.223 159.802 215.461C159.802 216.698 158.936 217.564 157.699 217.564C156.461 217.564 155.595 216.698 155.595 215.461Z" fill="url(#paint0_linear_321_37)"/>
<defs>
<linearGradient id="paint0_linear_321_37" x1="109" y1="196" x2="242" y2="196" gradientUnits="userSpaceOnUse">
<stop stop-color="#0E6DFC"/>
<stop offset="1" stop-color="#6D42C1"/>
</linearGradient>
</defs>
</svg>
