<svg viewBox="0 0 896 104" height="104" width="896" xmlns="http://www.w3.org/2000/svg" version="1.1"><g transform-origin="center" transform="scale(1, 1) rotate(0)"><rect x="0" y="0" width="896" height="104" fill="#00243800"></rect><linearGradient id="linear-gradient-r0"><stop offset="0%" stop-color="#0d6efd" stop-opacity="100%"></stop><stop offset="100%" stop-color="#6f42c1" stop-opacity="100%"></stop></linearGradient><filter id="shadow-r0" x="0" width="100%" y="-20%" height="150%"><feDropShadow dx="0" dy="0" stdDeviation="10" flood-color="#00000061"></feDropShadow></filter><path d="M0 0 0,57.181556695941836 C 9.955555555555557,57.13196726416796 29.866666666666667,56.26394328327105 49.77777777777778,56.93360953707248 C 69.6888888888889,57.603275790873916 79.64444444444445,60.63756578735262 99.55555555555556,60.52988796494901 C 119.46666666666667,60.4222101425454 129.42222222222222,57.80215800091253 149.33333333333334,56.39522042505443 C 169.24444444444447,54.988282849196345 179.20000000000002,55.89285616352037 199.11111111111111,53.49520008565858 C 219.0222222222222,51.09754400779679 228.97777777777776,45.71332033231109 248.88888888888889,44.4069400357455 C 268.8,43.10055973917991 278.7555555555556,46.3019811555855 298.6666666666667,46.96329860283062 C 318.5777777777778,47.62461605007574 328.53333333333336,46.49114323925227 348.44444444444446,47.7135272719711 C 368.35555555555555,48.93591130468994 378.31111111111113,51.968952416799965 398.22222222222223,53.075218766424804 C 418.1333333333333,54.18148511604965 428.0888888888889,54.001001143075534 448,53.24485902009532 C 467.9111111111111,52.48871689711511 477.8666666666667,49.10096306739376 497.77777777777777,49.29450815152377 C 517.6888888888889,49.48805323565379 527.6444444444444,53.64750607588888 547.5555555555555,54.21258444074541 C 567.4666666666667,54.77766280560195 577.4222222222222,53.28141453313083 597.3333333333334,52.119899975806476 C 617.2444444444445,50.95838541848212 627.1999999999999,47.75637819644064 647.1111111111111,48.40501165412366 C 667.0222222222222,49.05364511180669 676.9777777777778,53.80966614822299 696.8888888888889,55.363067264221606 C 716.8000000000001,56.91646838022023 726.7555555555555,56.99672989654541 746.6666666666666,56.172017234116794 C 766.5777777777778,55.34730457168818 776.5333333333333,53.426895039673894 796.4444444444445,51.23950395207852 C 816.3555555555556,49.05211286448315 826.3111111111111,43.98173128482699 846.2222222222223,45.235061796139924 C 866.1333333333334,46.488392307452855 886.0444444444445,55.051937566142534 896,57.50615650864318 L896 104 L0 104Z" fill="none" stroke-linecap="round" filter="url(#shadow-r0)" stroke-width="1" style="transition: all 0.4s cubic-bezier(0.16, 1, 0.3, 1) 0s; fill: url(&quot;#linear-gradient-r0&quot;);"></path><path d="M0 0 0,78.40178809554625 C 9.955555555555556,79.39225633224346 29.866666666666667,83.50240959857155 49.77777777777778,83.35412927903234 C 69.6888888888889,83.20584895949312 79.64444444444445,79.59784352161859 99.55555555555556,77.66038649785021 C 119.46666666666667,75.72292947408184 129.42222222222225,76.96859378174071 149.33333333333334,73.66684416019046 C 169.24444444444444,70.36509453864022 179.2,62.95062060844649 199.11111111111111,61.151638390099 C 219.02222222222224,59.35265617175151 228.97777777777776,63.76125006794805 248.88888888888889,64.67193306845301 C 268.8,65.58261606895799 278.7555555555556,64.02174023746201 298.6666666666667,65.70505339262385 C 318.5777777777778,67.3883665477857 328.53333333333336,71.56508832057068 348.44444444444446,73.0884988442622 C 368.35555555555555,74.61190936795373 378.31111111111113,74.3633695982322 398.22222222222223,73.32210601108147 C 418.1333333333333,72.28084242393075 428.0888888888889,67.61565502342457 448,67.88218090850859 C 467.9111111111111,68.14870679359261 477.8666666666667,73.87658076513806 497.77777777777777,74.6547354365016 C 517.6888888888889,75.43289010786513 527.6444444444444,73.37244565422087 547.5555555555555,71.77295426532625 C 567.4666666666667,70.17346287643163 577.4222222222222,65.76406228257964 597.3333333333334,66.65727849202851 C 617.2444444444445,67.55049470147739 627.1999999999999,74.0998871694232 647.1111111111111,76.23903531257062 C 667.0222222222222,78.37818345571804 676.9777777777778,78.48870949554443 696.8888888888889,77.35301920776566 C 716.8000000000001,76.21732891998688 726.7555555555555,73.57278306368366 746.6666666666666,70.56058387367675 C 766.5777777777778,67.54838468366985 776.5333333333333,60.566094514399765 796.4444444444445,62.292023257731145 C 816.3555555555556,64.01795200106253 826.3111111111111,77.37032885363821 846.2222222222223,79.19022759033366 C 866.1333333333334,81.01012632702911 886.0444444444445,72.95125907103343 896,71.39151694120838 L896 104 L0 104Z" fill="none" stroke-linecap="round" filter="url(#shadow-r0)" stroke-width="1" style="transition: all 0.4s cubic-bezier(0.16, 1, 0.3, 1) 0s; fill: url(&quot;#linear-gradient-r0&quot;);"></path><path d="M0 0 0,106.17837059311567 C 9.955555555555556,104.72780698862174 29.866666666666667,101.39352904232467 49.77777777777778,98.925552570646 C 69.6888888888889,96.45757609896734 79.64444444444445,98.04433139996107 99.55555555555556,93.83848823472236 C 119.46666666666667,89.63264506948366 129.42222222222222,80.1879208845819 149.33333333333334,77.89633674445251 C 169.24444444444447,75.60475260432312 179.20000000000002,81.2205189803106 199.11111111111111,82.38056753407542 C 219.0222222222222,83.54061608784025 228.97777777777776,81.55233723567177 248.88888888888889,83.6965795132766 C 268.8,85.84082179088144 278.7555555555556,91.16122422434141 298.6666666666667,93.10177892209961 C 318.5777777777778,95.04233361985781 328.53333333333336,94.72573805338888 348.44444444444446,93.39935300206764 C 368.35555555555555,92.0729679507464 378.31111111111113,86.1303469794554 398.22222222222223,86.46985366549342 C 418.1333333333333,86.80936035153145 428.0888888888889,94.10565545438726 448,95.09688643225779 C 467.9111111111111,96.08811741012832 477.8666666666667,93.46347677531092 497.77777777777777,91.42600855484604 C 517.6888888888889,89.38854033438115 527.6444444444444,83.77174636871865 547.5555555555555,84.90954532993337 C 567.4666666666667,86.0473442911481 577.4222222222222,94.39010819062341 597.3333333333334,97.11500336091964 C 617.2444444444445,99.83989853121588 627.1999999999999,99.98068909454345 647.1111111111111,98.53402118141452 C 667.0222222222222,97.08735326828558 676.9777777777778,93.71867108769342 696.8888888888889,89.88166379527499 C 716.8000000000001,86.04465650285655 726.7555555555555,77.15045774397255 746.6666666666666,79.34898471932237 C 766.5777777777778,81.54751169467221 776.5333333333333,98.55607059888418 796.4444444444445,100.87429867202415 C 816.3555555555556,103.19252674516413 826.3111111111111,91.75107617643722 846.2222222222223,90.94012508502229 C 866.1333333333334,90.12917399360735 886.0444444444445,95.64365958896403 896,96.81954321494946 L896 104 L0 104Z" fill="none" stroke-linecap="round" filter="url(#shadow-r0)" stroke-width="1" style="transition: all 0.4s cubic-bezier(0.16, 1, 0.3, 1) 0s; fill: url(&quot;#linear-gradient-r0&quot;);"></path></g></svg>